{"asset":{"version":"2.0","generator":"babylon.js glTF exporter for 3dsmax 2019 v20200312.5"},"scene":0,"scenes":[{"nodes":[0,1]}],"nodes":[{"mesh":0,"translation":[-1.64955807,3.03128076,21.1961956],"scale":[0.0,0.0,0.0],"name":"Object423"},{"name":"Default light"}],"meshes":[{"primitives":[{"attributes":{"POSITION":1,"TANGENT":2,"NORMAL":3,"TEXCOORD_0":4},"indices":0,"material":0,"targets":[{"POSITION":5,"NORMAL":6,"TANGENT":7}]}],"weights":[0.0],"name":"Object423"}],"accessors":[{"bufferView":0,"componentType":5123,"count":2952,"type":"SCALAR","name":"accessorIndices"},{"bufferView":1,"componentType":5126,"count":2952,"max":[1.47273922,1.122447,1.26751173],"min":[-1.47273922,-1.122447,-1.26750779],"type":"VEC3","name":"accessorPositions"},{"bufferView":2,"componentType":5126,"count":2952,"type":"VEC4","name":"accessorTangents"},{"bufferView":1,"byteOffset":35424,"componentType":5126,"count":2952,"type":"VEC3","name":"accessorNormals"},{"bufferView":3,"componentType":5126,"count":2952,"type":"VEC2","name":"accessorUVs"},{"bufferView":1,"byteOffset":70848,"componentType":5126,"count":2952,"max":[0.427434683,0.4790784,0.370583653],"min":[-0.344257236,-0.454509854,-0.4107148],"type":"VEC3","name":"accessorTargetPositions"},{"bufferView":1,"byteOffset":106272,"componentType":5126,"count":2952,"type":"VEC3","name":"accessorTargetNormals"},{"bufferView":1,"byteOffset":141696,"componentType":5126,"count":2952,"type":"VEC3","name":"accessorTargetTangents"},{"bufferView":4,"componentType":5126,"count":325,"max":[10.8],"min":[0.0],"type":"SCALAR","name":"accessorAnimationInput"},{"bufferView":5,"componentType":5126,"count":325,"type":"VEC3","name":"accessorAnimationPositions"},{"bufferView":4,"byteOffset":1300,"componentType":5126,"count":325,"max":[10.8],"min":[0.0],"type":"SCALAR","name":"accessorAnimationInput"},{"bufferView":6,"componentType":5126,"count":325,"type":"VEC4","name":"accessorAnimationRotations"},{"bufferView":4,"byteOffset":2600,"componentType":5126,"count":325,"max":[10.8],"min":[0.0],"type":"SCALAR","name":"accessorAnimationInput"},{"bufferView":5,"byteOffset":3900,"componentType":5126,"count":325,"type":"VEC3","name":"accessorAnimationScales"}],"bufferViews":[{"buffer":0,"byteLength":5904,"name":"bufferViewScalar"},{"buffer":0,"byteOffset":5904,"byteLength":177120,"byteStride":12,"name":"bufferViewFloatVec3"},{"buffer":0,"byteOffset":183024,"byteLength":47232,"byteStride":16,"name":"bufferViewFloatVec4"},{"buffer":0,"byteOffset":230256,"byteLength":23616,"byteStride":8,"name":"bufferViewFloatVec2"},{"buffer":0,"byteOffset":253872,"byteLength":3900,"name":"bufferViewAnimationFloatScalar"},{"buffer":0,"byteOffset":257772,"byteLength":7800,"name":"bufferViewAnimationFloatVec3"},{"buffer":0,"byteOffset":265572,"byteLength":5200,"name":"bufferViewAnimationFloatVec4"}],"buffers":[{"uri":"BackCell.bin","byteLength":270772}],"materials":[{"pbrMetallicRoughness":{"baseColorFactor":[0.8,0.8,0.8,1.0],"metallicFactor":0.0,"roughnessFactor":0.2},"name":"BackCell"}],"animations":[{"channels":[{"sampler":0,"target":{"node":0,"path":"translation"}},{"sampler":1,"target":{"node":0,"path":"rotation"}},{"sampler":2,"target":{"node":0,"path":"scale"}}],"samplers":[{"input":8,"interpolation":0,"output":9},{"input":10,"interpolation":0,"output":11},{"input":12,"interpolation":0,"output":13}],"name":"MainCellBack"}]}