{"asset":{"version":"2.0","generator":"babylon.js glTF exporter for 3dsmax 2019 v20200312.5"},"scene":0,"scenes":[{"nodes":[0,1,2,3,4]}],"nodes":[{"mesh":0,"translation":[-1.64955807,3.03128076,21.1961956],"scale":[0.0,0.0,0.0],"name":"Object425"},{"mesh":1,"translation":[-1.64955807,3.03128076,21.1961956],"scale":[0.0,0.0,0.0],"name":"Object427"},{"mesh":2,"translation":[-1.64955688,4.15535831,7.2083745],"rotation":[-0.00237729074,4.487397E-06,-4.69927327E-05,0.999997139],"scale":[1.00136232,1.00040853,1.00177014],"name":"Object428"},{"mesh":3,"translation":[-1.64955807,3.03128076,21.1961956],"scale":[0.0,0.0,0.0],"name":"Object429"},{"name":"Default light"}],"meshes":[{"primitives":[{"attributes":{"POSITION":1,"TANGENT":2,"NORMAL":3,"TEXCOORD_0":4},"indices":0,"material":0,"targets":[{"POSITION":5,"NORMAL":6,"TANGENT":7}]}],"weights":[0.0],"name":"Object425"},{"primitives":[{"attributes":{"POSITION":9,"TANGENT":10,"NORMAL":11,"TEXCOORD_0":12},"indices":8,"material":0,"targets":[{"POSITION":13,"NORMAL":14,"TANGENT":15}]}],"weights":[0.0],"name":"Object427"},{"primitives":[{"attributes":{"POSITION":17,"TANGENT":18,"NORMAL":19,"TEXCOORD_0":20},"indices":16,"material":0,"targets":[{"POSITION":21,"NORMAL":22,"TANGENT":23}]}],"weights":[0.0],"name":"Object428"},{"primitives":[{"attributes":{"POSITION":25,"TANGENT":26,"NORMAL":27,"TEXCOORD_0":28},"indices":24,"material":0,"targets":[{"POSITION":29,"NORMAL":30,"TANGENT":31}]}],"weights":[0.0],"name":"Object429"}],"accessors":[{"bufferView":0,"componentType":5123,"count":2952,"type":"SCALAR","name":"accessorIndices"},{"bufferView":1,"componentType":5126,"count":2952,"max":[1.47273922,1.122447,1.26751173],"min":[-1.47273922,-1.122447,-1.26750779],"type":"VEC3","name":"accessorPositions"},{"bufferView":2,"componentType":5126,"count":2952,"type":"VEC4","name":"accessorTangents"},{"bufferView":1,"byteOffset":35424,"componentType":5126,"count":2952,"type":"VEC3","name":"accessorNormals"},{"bufferView":3,"componentType":5126,"count":2952,"type":"VEC2","name":"accessorUVs"},{"bufferView":1,"byteOffset":70848,"componentType":5126,"count":2952,"max":[0.427434683,0.4790784,0.370583653],"min":[-0.344257236,-0.454509854,-0.4107148],"type":"VEC3","name":"accessorTargetPositions"},{"bufferView":1,"byteOffset":106272,"componentType":5126,"count":2952,"type":"VEC3","name":"accessorTargetNormals"},{"bufferView":1,"byteOffset":141696,"componentType":5126,"count":2952,"type":"VEC3","name":"accessorTargetTangents"},{"bufferView":0,"byteOffset":5904,"componentType":5123,"count":2952,"type":"SCALAR","name":"accessorIndices"},{"bufferView":1,"byteOffset":177120,"componentType":5126,"count":2952,"max":[1.47273922,1.122447,1.26751173],"min":[-1.47273922,-1.122447,-1.26750779],"type":"VEC3","name":"accessorPositions"},{"bufferView":2,"byteOffset":47232,"componentType":5126,"count":2952,"type":"VEC4","name":"accessorTangents"},{"bufferView":1,"byteOffset":212544,"componentType":5126,"count":2952,"type":"VEC3","name":"accessorNormals"},{"bufferView":3,"byteOffset":23616,"componentType":5126,"count":2952,"type":"VEC2","name":"accessorUVs"},{"bufferView":1,"byteOffset":247968,"componentType":5126,"count":2952,"max":[0.427434683,0.4790784,0.370583653],"min":[-0.344257236,-0.454509854,-0.4107148],"type":"VEC3","name":"accessorTargetPositions"},{"bufferView":1,"byteOffset":283392,"componentType":5126,"count":2952,"type":"VEC3","name":"accessorTargetNormals"},{"bufferView":1,"byteOffset":318816,"componentType":5126,"count":2952,"type":"VEC3","name":"accessorTargetTangents"},{"bufferView":0,"byteOffset":11808,"componentType":5123,"count":2952,"type":"SCALAR","name":"accessorIndices"},{"bufferView":1,"byteOffset":354240,"componentType":5126,"count":2952,"max":[1.32747734,0.689477146,1.10230923],"min":[-1.23817682,-1.0441463,-1.046125],"type":"VEC3","name":"accessorPositions"},{"bufferView":2,"byteOffset":94464,"componentType":5126,"count":2952,"type":"VEC4","name":"accessorTangents"},{"bufferView":1,"byteOffset":389664,"componentType":5126,"count":2952,"type":"VEC3","name":"accessorNormals"},{"bufferView":3,"byteOffset":47232,"componentType":5126,"count":2952,"type":"VEC2","name":"accessorUVs"},{"bufferView":1,"byteOffset":425088,"componentType":5126,"count":2952,"max":[0.140647888,0.389358342,0.140164018],"min":[-0.198995352,-0.0215399861,-0.203707278],"type":"VEC3","name":"accessorTargetPositions"},{"bufferView":1,"byteOffset":460512,"componentType":5126,"count":2952,"type":"VEC3","name":"accessorTargetNormals"},{"bufferView":1,"byteOffset":495936,"componentType":5126,"count":2952,"type":"VEC3","name":"accessorTargetTangents"},{"bufferView":0,"byteOffset":17712,"componentType":5123,"count":2952,"type":"SCALAR","name":"accessorIndices"},{"bufferView":1,"byteOffset":531360,"componentType":5126,"count":2952,"max":[1.47273922,1.122447,1.26751173],"min":[-1.47273922,-1.122447,-1.26750779],"type":"VEC3","name":"accessorPositions"},{"bufferView":2,"byteOffset":141696,"componentType":5126,"count":2952,"type":"VEC4","name":"accessorTangents"},{"bufferView":1,"byteOffset":566784,"componentType":5126,"count":2952,"type":"VEC3","name":"accessorNormals"},{"bufferView":3,"byteOffset":70848,"componentType":5126,"count":2952,"type":"VEC2","name":"accessorUVs"},{"bufferView":1,"byteOffset":602208,"componentType":5126,"count":2952,"max":[0.427434683,0.4790784,0.370583653],"min":[-0.344257236,-0.454509854,-0.4107148],"type":"VEC3","name":"accessorTargetPositions"},{"bufferView":1,"byteOffset":637632,"componentType":5126,"count":2952,"type":"VEC3","name":"accessorTargetNormals"},{"bufferView":1,"byteOffset":673056,"componentType":5126,"count":2952,"type":"VEC3","name":"accessorTargetTangents"},{"bufferView":4,"componentType":5126,"count":487,"max":[16.2],"min":[0.0],"type":"SCALAR","name":"accessorAnimationInput"},{"bufferView":5,"componentType":5126,"count":487,"type":"VEC3","name":"accessorAnimationPositions"},{"bufferView":4,"byteOffset":1948,"componentType":5126,"count":487,"max":[16.2],"min":[0.0],"type":"SCALAR","name":"accessorAnimationInput"},{"bufferView":6,"componentType":5126,"count":487,"type":"VEC4","name":"accessorAnimationRotations"},{"bufferView":4,"byteOffset":3896,"componentType":5126,"count":487,"max":[16.2],"min":[0.0],"type":"SCALAR","name":"accessorAnimationInput"},{"bufferView":5,"byteOffset":5844,"componentType":5126,"count":487,"type":"VEC3","name":"accessorAnimationScales"},{"bufferView":4,"byteOffset":5844,"componentType":5126,"count":3,"max":[16.2],"min":[0.0],"type":"SCALAR","name":"accessorAnimationInput"},{"bufferView":4,"byteOffset":5856,"componentType":5126,"count":3,"type":"SCALAR","name":"accessorAnimationWeights"},{"bufferView":4,"byteOffset":5868,"componentType":5126,"count":487,"max":[16.2],"min":[0.0],"type":"SCALAR","name":"accessorAnimationInput"},{"bufferView":5,"byteOffset":11688,"componentType":5126,"count":487,"type":"VEC3","name":"accessorAnimationPositions"},{"bufferView":4,"byteOffset":7816,"componentType":5126,"count":487,"max":[16.2],"min":[0.0],"type":"SCALAR","name":"accessorAnimationInput"},{"bufferView":6,"byteOffset":7792,"componentType":5126,"count":487,"type":"VEC4","name":"accessorAnimationRotations"},{"bufferView":4,"byteOffset":9764,"componentType":5126,"count":487,"max":[16.2],"min":[0.0],"type":"SCALAR","name":"accessorAnimationInput"},{"bufferView":5,"byteOffset":17532,"componentType":5126,"count":487,"type":"VEC3","name":"accessorAnimationScales"},{"bufferView":4,"byteOffset":11712,"componentType":5126,"count":3,"max":[16.2],"min":[5.4],"type":"SCALAR","name":"accessorAnimationInput"},{"bufferView":4,"byteOffset":11724,"componentType":5126,"count":3,"type":"SCALAR","name":"accessorAnimationWeights"},{"bufferView":4,"byteOffset":11736,"componentType":5126,"count":487,"max":[16.2],"min":[0.0],"type":"SCALAR","name":"accessorAnimationInput"},{"bufferView":5,"byteOffset":23376,"componentType":5126,"count":487,"type":"VEC3","name":"accessorAnimationPositions"},{"bufferView":4,"byteOffset":13684,"componentType":5126,"count":487,"max":[16.2],"min":[0.0],"type":"SCALAR","name":"accessorAnimationInput"},{"bufferView":6,"byteOffset":15584,"componentType":5126,"count":487,"type":"VEC4","name":"accessorAnimationRotations"},{"bufferView":4,"byteOffset":15632,"componentType":5126,"count":487,"max":[16.2],"min":[0.0],"type":"SCALAR","name":"accessorAnimationInput"},{"bufferView":5,"byteOffset":29220,"componentType":5126,"count":487,"type":"VEC3","name":"accessorAnimationScales"},{"bufferView":4,"byteOffset":17580,"componentType":5126,"count":2,"max":[16.2],"min":[4.6],"type":"SCALAR","name":"accessorAnimationInput"},{"bufferView":4,"byteOffset":17588,"componentType":5126,"count":2,"type":"SCALAR","name":"accessorAnimationWeights"},{"bufferView":4,"byteOffset":17596,"componentType":5126,"count":487,"max":[16.2],"min":[0.0],"type":"SCALAR","name":"accessorAnimationInput"},{"bufferView":5,"byteOffset":35064,"componentType":5126,"count":487,"type":"VEC3","name":"accessorAnimationPositions"},{"bufferView":4,"byteOffset":19544,"componentType":5126,"count":487,"max":[16.2],"min":[0.0],"type":"SCALAR","name":"accessorAnimationInput"},{"bufferView":6,"byteOffset":23376,"componentType":5126,"count":487,"type":"VEC4","name":"accessorAnimationRotations"},{"bufferView":4,"byteOffset":21492,"componentType":5126,"count":487,"max":[16.2],"min":[0.0],"type":"SCALAR","name":"accessorAnimationInput"},{"bufferView":5,"byteOffset":40908,"componentType":5126,"count":487,"type":"VEC3","name":"accessorAnimationScales"},{"bufferView":4,"byteOffset":23440,"componentType":5126,"count":2,"max":[16.2],"min":[10.8],"type":"SCALAR","name":"accessorAnimationInput"},{"bufferView":4,"byteOffset":23448,"componentType":5126,"count":2,"type":"SCALAR","name":"accessorAnimationWeights"}],"bufferViews":[{"buffer":0,"byteLength":23616,"name":"bufferViewScalar"},{"buffer":0,"byteOffset":23616,"byteLength":708480,"byteStride":12,"name":"bufferViewFloatVec3"},{"buffer":0,"byteOffset":732096,"byteLength":188928,"byteStride":16,"name":"bufferViewFloatVec4"},{"buffer":0,"byteOffset":921024,"byteLength":94464,"byteStride":8,"name":"bufferViewFloatVec2"},{"buffer":0,"byteOffset":1015488,"byteLength":23456,"name":"bufferViewAnimationFloatScalar"},{"buffer":0,"byteOffset":1038944,"byteLength":46752,"name":"bufferViewAnimationFloatVec3"},{"buffer":0,"byteOffset":1085696,"byteLength":31168,"name":"bufferViewAnimationFloatVec4"}],"buffers":[{"uri":"BackCellProcession.bin","byteLength":1116864}],"materials":[{"pbrMetallicRoughness":{"baseColorFactor":[0.8,0.8,0.8,1.0],"metallicFactor":0.0,"roughnessFactor":0.2},"name":"BackCell"}],"animations":[{"channels":[{"sampler":0,"target":{"node":0,"path":"translation"}},{"sampler":1,"target":{"node":0,"path":"rotation"}},{"sampler":2,"target":{"node":0,"path":"scale"}},{"sampler":3,"target":{"node":0,"path":"weights"}},{"sampler":4,"target":{"node":1,"path":"translation"}},{"sampler":5,"target":{"node":1,"path":"rotation"}},{"sampler":6,"target":{"node":1,"path":"scale"}},{"sampler":7,"target":{"node":1,"path":"weights"}},{"sampler":8,"target":{"node":2,"path":"translation"}},{"sampler":9,"target":{"node":2,"path":"rotation"}},{"sampler":10,"target":{"node":2,"path":"scale"}},{"sampler":11,"target":{"node":2,"path":"weights"}},{"sampler":12,"target":{"node":3,"path":"translation"}},{"sampler":13,"target":{"node":3,"path":"rotation"}},{"sampler":14,"target":{"node":3,"path":"scale"}},{"sampler":15,"target":{"node":3,"path":"weights"}}],"samplers":[{"input":32,"interpolation":0,"output":33},{"input":34,"interpolation":0,"output":35},{"input":36,"interpolation":0,"output":37},{"input":38,"interpolation":0,"output":39},{"input":40,"interpolation":0,"output":41},{"input":42,"interpolation":0,"output":43},{"input":44,"interpolation":0,"output":45},{"input":46,"interpolation":0,"output":47},{"input":48,"interpolation":0,"output":49},{"input":50,"interpolation":0,"output":51},{"input":52,"interpolation":0,"output":53},{"input":54,"interpolation":0,"output":55},{"input":56,"interpolation":0,"output":57},{"input":58,"interpolation":0,"output":59},{"input":60,"interpolation":0,"output":61},{"input":62,"interpolation":0,"output":63}],"name":"All Animations"}]}