{"asset":{"version":"2.0","generator":"babylon.js glTF exporter for 3dsmax 2019 v20200312.5"},"scene":0,"scenes":[{"nodes":[0,2,4,6]}],"nodes":[{"children":[1],"mesh":0,"translation":[-1.64955807,3.03128076,21.1961956],"scale":[0.0,0.0,0.0],"name":"PC2"},{"mesh":1,"scale":[0.0,0.0,0.0],"name":"GeoSphere011"},{"children":[3],"mesh":2,"translation":[-1.64955807,3.03128076,21.1961956],"scale":[0.0,0.0,0.0],"name":"PC3"},{"mesh":1,"scale":[0.0,0.0,0.0],"name":"GeoSphere010"},{"children":[5],"mesh":3,"translation":[-1.64955688,4.15535831,7.2083745],"rotation":[-0.00237729074,4.487397E-06,-4.69927327E-05,0.999997139],"scale":[1.00136232,1.00040853,1.00177014],"name":"PC1"},{"mesh":1,"translation":[-0.000115203853,-0.210875854,-0.00489013642],"rotation":[0.481329,-0.50112164,0.5077507,0.5093022],"scale":[1.00186944,1.00177276,1.00044715],"name":"GeoSphere009"},{"name":"Default light"}],"meshes":[{"primitives":[{"attributes":{"POSITION":1,"TANGENT":2,"NORMAL":3,"TEXCOORD_0":4},"indices":0,"material":0,"targets":[{"POSITION":5,"NORMAL":6,"TANGENT":7}]}],"weights":[0.0],"name":"PC2"},{"primitives":[{"attributes":{"POSITION":9,"TANGENT":10,"NORMAL":11,"TEXCOORD_0":12},"indices":8,"material":1}],"name":"GeoSphere011"},{"primitives":[{"attributes":{"POSITION":14,"TANGENT":15,"NORMAL":16,"TEXCOORD_0":17},"indices":13,"material":2,"targets":[{"POSITION":18,"NORMAL":19,"TANGENT":20}]}],"weights":[0.0],"name":"PC3"},{"primitives":[{"attributes":{"POSITION":22,"TANGENT":23,"NORMAL":24,"TEXCOORD_0":25},"indices":21,"material":3,"targets":[{"POSITION":26,"NORMAL":27,"TANGENT":28}]}],"weights":[0.0],"name":"PC1"}],"accessors":[{"bufferView":0,"componentType":5123,"count":2952,"type":"SCALAR","name":"accessorIndices"},{"bufferView":1,"componentType":5126,"count":2952,"max":[1.47273922,1.122447,1.26751173],"min":[-1.47273922,-1.122447,-1.26750779],"type":"VEC3","name":"accessorPositions"},{"bufferView":2,"componentType":5126,"count":2952,"type":"VEC4","name":"accessorTangents"},{"bufferView":1,"byteOffset":35424,"componentType":5126,"count":2952,"type":"VEC3","name":"accessorNormals"},{"bufferView":3,"componentType":5126,"count":2952,"type":"VEC2","name":"accessorUVs"},{"bufferView":1,"byteOffset":70848,"componentType":5126,"count":2952,"max":[0.427434683,0.4790784,0.370583653],"min":[-0.344257236,-0.454509854,-0.4107148],"type":"VEC3","name":"accessorTargetPositions"},{"bufferView":1,"byteOffset":106272,"componentType":5126,"count":2952,"type":"VEC3","name":"accessorTargetNormals"},{"bufferView":1,"byteOffset":141696,"componentType":5126,"count":2952,"type":"VEC3","name":"accessorTargetTangents"},{"bufferView":0,"byteOffset":5904,"componentType":5123,"count":540,"type":"SCALAR","name":"accessorIndices"},{"bufferView":1,"byteOffset":177120,"componentType":5126,"count":540,"max":[0.440746516,0.447251469,0.439658731],"min":[-0.440746456,-0.447251469,-0.4396587],"type":"VEC3","name":"accessorPositions"},{"bufferView":2,"byteOffset":47232,"componentType":5126,"count":540,"type":"VEC4","name":"accessorTangents"},{"bufferView":1,"byteOffset":183600,"componentType":5126,"count":540,"type":"VEC3","name":"accessorNormals"},{"bufferView":3,"byteOffset":23616,"componentType":5126,"count":540,"type":"VEC2","name":"accessorUVs"},{"bufferView":0,"byteOffset":6984,"componentType":5123,"count":2952,"type":"SCALAR","name":"accessorIndices"},{"bufferView":1,"byteOffset":190080,"componentType":5126,"count":2952,"max":[1.47273922,1.122447,1.26751173],"min":[-1.47273922,-1.122447,-1.26750779],"type":"VEC3","name":"accessorPositions"},{"bufferView":2,"byteOffset":55872,"componentType":5126,"count":2952,"type":"VEC4","name":"accessorTangents"},{"bufferView":1,"byteOffset":225504,"componentType":5126,"count":2952,"type":"VEC3","name":"accessorNormals"},{"bufferView":3,"byteOffset":27936,"componentType":5126,"count":2952,"type":"VEC2","name":"accessorUVs"},{"bufferView":1,"byteOffset":260928,"componentType":5126,"count":2952,"max":[0.427434683,0.4790784,0.370583653],"min":[-0.344257236,-0.454509854,-0.4107148],"type":"VEC3","name":"accessorTargetPositions"},{"bufferView":1,"byteOffset":296352,"componentType":5126,"count":2952,"type":"VEC3","name":"accessorTargetNormals"},{"bufferView":1,"byteOffset":331776,"componentType":5126,"count":2952,"type":"VEC3","name":"accessorTargetTangents"},{"bufferView":0,"byteOffset":12888,"componentType":5123,"count":2952,"type":"SCALAR","name":"accessorIndices"},{"bufferView":1,"byteOffset":367200,"componentType":5126,"count":2952,"max":[1.32747734,0.689477146,1.10230923],"min":[-1.23817682,-1.0441463,-1.046125],"type":"VEC3","name":"accessorPositions"},{"bufferView":2,"byteOffset":103104,"componentType":5126,"count":2952,"type":"VEC4","name":"accessorTangents"},{"bufferView":1,"byteOffset":402624,"componentType":5126,"count":2952,"type":"VEC3","name":"accessorNormals"},{"bufferView":3,"byteOffset":51552,"componentType":5126,"count":2952,"type":"VEC2","name":"accessorUVs"},{"bufferView":1,"byteOffset":438048,"componentType":5126,"count":2952,"max":[0.140647888,0.389358342,0.140164018],"min":[-0.198995352,-0.0215399861,-0.203707278],"type":"VEC3","name":"accessorTargetPositions"},{"bufferView":1,"byteOffset":473472,"componentType":5126,"count":2952,"type":"VEC3","name":"accessorTargetNormals"},{"bufferView":1,"byteOffset":508896,"componentType":5126,"count":2952,"type":"VEC3","name":"accessorTargetTangents"},{"bufferView":4,"componentType":5126,"count":325,"max":[10.8],"min":[0.0],"type":"SCALAR","name":"accessorAnimationInput"},{"bufferView":5,"componentType":5126,"count":325,"type":"VEC3","name":"accessorAnimationPositions"},{"bufferView":4,"byteOffset":1300,"componentType":5126,"count":325,"max":[10.8],"min":[0.0],"type":"SCALAR","name":"accessorAnimationInput"},{"bufferView":6,"componentType":5126,"count":325,"type":"VEC4","name":"accessorAnimationRotations"},{"bufferView":4,"byteOffset":2600,"componentType":5126,"count":325,"max":[10.8],"min":[0.0],"type":"SCALAR","name":"accessorAnimationInput"},{"bufferView":5,"byteOffset":3900,"componentType":5126,"count":325,"type":"VEC3","name":"accessorAnimationScales"},{"bufferView":4,"byteOffset":3900,"componentType":5126,"count":3,"max":[10.8],"min":[0.0],"type":"SCALAR","name":"accessorAnimationInput"},{"bufferView":4,"byteOffset":3912,"componentType":5126,"count":3,"type":"SCALAR","name":"accessorAnimationWeights"},{"bufferView":4,"byteOffset":3924,"componentType":5126,"count":325,"max":[10.8],"min":[0.0],"type":"SCALAR","name":"accessorAnimationInput"},{"bufferView":5,"byteOffset":7800,"componentType":5126,"count":325,"type":"VEC3","name":"accessorAnimationPositions"},{"bufferView":4,"byteOffset":5224,"componentType":5126,"count":325,"max":[10.8],"min":[0.0],"type":"SCALAR","name":"accessorAnimationInput"},{"bufferView":6,"byteOffset":5200,"componentType":5126,"count":325,"type":"VEC4","name":"accessorAnimationRotations"},{"bufferView":4,"byteOffset":6524,"componentType":5126,"count":325,"max":[10.8],"min":[0.0],"type":"SCALAR","name":"accessorAnimationInput"},{"bufferView":5,"byteOffset":11700,"componentType":5126,"count":325,"type":"VEC3","name":"accessorAnimationScales"},{"bufferView":4,"byteOffset":7824,"componentType":5126,"count":2,"max":[10.8],"min":[5.4],"type":"SCALAR","name":"accessorAnimationInput"},{"bufferView":4,"byteOffset":7832,"componentType":5126,"count":2,"type":"SCALAR","name":"accessorAnimationWeights"},{"bufferView":4,"byteOffset":7840,"componentType":5126,"count":325,"max":[10.8],"min":[0.0],"type":"SCALAR","name":"accessorAnimationInput"},{"bufferView":5,"byteOffset":15600,"componentType":5126,"count":325,"type":"VEC3","name":"accessorAnimationPositions"},{"bufferView":4,"byteOffset":9140,"componentType":5126,"count":325,"max":[10.8],"min":[0.0],"type":"SCALAR","name":"accessorAnimationInput"},{"bufferView":6,"byteOffset":10400,"componentType":5126,"count":325,"type":"VEC4","name":"accessorAnimationRotations"},{"bufferView":4,"byteOffset":10440,"componentType":5126,"count":325,"max":[10.8],"min":[0.0],"type":"SCALAR","name":"accessorAnimationInput"},{"bufferView":5,"byteOffset":19500,"componentType":5126,"count":325,"type":"VEC3","name":"accessorAnimationScales"},{"bufferView":4,"byteOffset":11740,"componentType":5126,"count":2,"max":[10.8],"min":[4.6],"type":"SCALAR","name":"accessorAnimationInput"},{"bufferView":4,"byteOffset":11748,"componentType":5126,"count":2,"type":"SCALAR","name":"accessorAnimationWeights"}],"bufferViews":[{"buffer":0,"byteLength":18792,"name":"bufferViewScalar"},{"buffer":0,"byteOffset":18792,"byteLength":544320,"byteStride":12,"name":"bufferViewFloatVec3"},{"buffer":0,"byteOffset":563112,"byteLength":150336,"byteStride":16,"name":"bufferViewFloatVec4"},{"buffer":0,"byteOffset":713448,"byteLength":75168,"byteStride":8,"name":"bufferViewFloatVec2"},{"buffer":0,"byteOffset":788616,"byteLength":11756,"name":"bufferViewAnimationFloatScalar"},{"buffer":0,"byteOffset":800372,"byteLength":23400,"name":"bufferViewAnimationFloatVec3"},{"buffer":0,"byteOffset":823772,"byteLength":15600,"name":"bufferViewAnimationFloatVec4"}],"buffers":[{"uri":"BackCellProcession.bin","byteLength":839372}],"materials":[{"pbrMetallicRoughness":{"baseColorFactor":[0.401568651,0.0,0.1560049,1.0],"metallicFactor":0.0,"roughnessFactor":0.2},"name":"ProcessionCellTwo"},{"pbrMetallicRoughness":{"baseColorFactor":[0.213333353,0.2509804,0.643137336,1.0],"metallicFactor":0.0,"roughnessFactor":0.2},"name":"innernucleus"},{"pbrMetallicRoughness":{"baseColorFactor":[0.401568651,0.0,0.1560049,1.0],"metallicFactor":0.0,"roughnessFactor":0.2},"name":"ProcessionCellThree"},{"pbrMetallicRoughness":{"baseColorFactor":[0.401568651,0.0,0.1560049,1.0],"metallicFactor":0.0,"roughnessFactor":0.2},"name":"ProcessionCellOne"}],"animations":[{"channels":[{"sampler":0,"target":{"node":0,"path":"translation"}},{"sampler":1,"target":{"node":0,"path":"rotation"}},{"sampler":2,"target":{"node":0,"path":"scale"}},{"sampler":3,"target":{"node":0,"path":"weights"}},{"sampler":4,"target":{"node":2,"path":"translation"}},{"sampler":5,"target":{"node":2,"path":"rotation"}},{"sampler":6,"target":{"node":2,"path":"scale"}},{"sampler":7,"target":{"node":2,"path":"weights"}},{"sampler":8,"target":{"node":4,"path":"translation"}},{"sampler":9,"target":{"node":4,"path":"rotation"}},{"sampler":10,"target":{"node":4,"path":"scale"}},{"sampler":11,"target":{"node":4,"path":"weights"}}],"samplers":[{"input":29,"interpolation":0,"output":30},{"input":31,"interpolation":0,"output":32},{"input":33,"interpolation":0,"output":34},{"input":35,"interpolation":0,"output":36},{"input":37,"interpolation":0,"output":38},{"input":39,"interpolation":0,"output":40},{"input":41,"interpolation":0,"output":42},{"input":43,"interpolation":0,"output":44},{"input":45,"interpolation":0,"output":46},{"input":47,"interpolation":0,"output":48},{"input":49,"interpolation":0,"output":50},{"input":51,"interpolation":0,"output":52}],"name":"All Animations"}]}