{"asset":{"version":"2.0","generator":"babylon.js glTF exporter for 3dsmax 2019 v20200312.5"},"scene":0,"scenes":[{"nodes":[0,20]}],"nodes":[{"children":[1],"translation":[-1.58890069,3.71971035,-14.0340643],"name":"cells"},{"children":[2,4,5,6,7,8,9,10,11,12,13,14,15,16,17,18,19],"translation":[-3.05175774E-07,0.0,2.020957],"name":"Group001"},{"children":[3],"mesh":0,"translation":[0.03501419,-0.77272886,3.45133781],"rotation":[-0.3828968,-0.6450116,0.6038448,0.269669265],"scale":[0.09102213,0.09102213,0.0910220742],"name":"1_8Shape014"},{"mesh":1,"translation":[0.0121289063,-0.00140624994,-0.0247961413],"rotation":[7.2971936E-08,-0.46174857,-1.405736E-07,0.8870109],"scale":[1.00000036,1.00000036,0.9999999],"name":"1_11Shape014"},{"mesh":2,"translation":[2.273043,-0.142839357,3.383269],"name":"Object404"},{"mesh":2,"translation":[1.27241671,0.5928076,3.61038923],"rotation":[-0.838817656,0.353476167,-0.185569331,0.370139927],"scale":[1.0,1.00000012,1.0],"name":"Object405"},{"mesh":2,"translation":[0.9882175,-0.100902095,4.800632],"rotation":[0.465385616,0.6402931,-0.2576846,0.55411154],"scale":[1.00000012,0.999999762,0.99999994],"name":"Object406"},{"mesh":2,"translation":[-0.169192508,0.3230664,4.1660533],"rotation":[0.3052026,-0.6785808,-0.554184,0.373174965],"scale":[0.99999994,1.0,1.0],"name":"Object407"},{"mesh":2,"translation":[-0.793331563,-0.09388183,5.13365841],"rotation":[-0.7689624,0.186254352,-0.4553452,0.4082486],"name":"Object408"},{"mesh":2,"translation":[-1.46952665,0.474968255,3.783794],"rotation":[-0.580791652,0.491903335,0.648543954,-0.010143959],"scale":[1.00000012,1.0,1.00000024],"name":"Object409"},{"mesh":2,"translation":[-2.39072752,-0.568410635,3.25334215],"rotation":[-0.7542407,0.5945491,0.218623847,0.172730789],"name":"Object410"},{"mesh":2,"translation":[0.612244546,-0.3311743,3.383269],"rotation":[0.0,-0.9299405,0.0,0.3677101],"name":"Object411"},{"mesh":3,"translation":[2.22008657,-0.6733606,3.41994929],"rotation":[-0.63259846,-0.34352082,-0.465289921,0.515090346],"scale":[4.65537167,4.655375,4.655372],"name":"1_11Shape012"},{"mesh":3,"translation":[1.20260143,0.267478019,3.66254568],"rotation":[-0.8576204,-0.01970959,-0.0503849238,0.511429548],"scale":[4.655372,4.65537453,4.65537167],"name":"1_11Shape022"},{"mesh":3,"translation":[0.909664869,-0.325014651,4.78793526],"rotation":[-0.652292252,-0.32072565,-0.4372533,0.5295841],"scale":[4.655373,4.655374,4.655372],"name":"1_11Shape023"},{"mesh":3,"translation":[0.0223336779,0.164566651,4.18153429],"rotation":[0.0148247126,-0.774221539,-0.6324941,0.01767629],"scale":[4.65537167,4.65537453,4.65537262],"name":"1_11Shape024"},{"mesh":3,"translation":[-1.396123,0.10687378,3.62289429],"rotation":[-0.253528684,0.594548941,0.74323535,0.172730789],"scale":[4.65537167,4.65537453,4.655371],"name":"1_11Shape025"},{"mesh":3,"translation":[-0.9448028,-0.3323401,5.201578],"rotation":[-0.783528268,-0.0129646724,-0.0525264665,0.618996263],"scale":[4.655372,4.65537357,4.655372],"name":"1_11Shape026"},{"mesh":3,"translation":[-2.358866,-0.673358142,3.32063723],"rotation":[-0.568070769,0.4476131,0.542191,0.427746445],"scale":[4.65537262,4.65537453,4.65537167],"name":"1_11Shape027"},{"mesh":3,"translation":[0.727284551,-0.587706268,3.11442924],"rotation":[-0.652292252,-0.32072565,-0.4372533,0.5295841],"scale":[4.655373,4.655374,4.655372],"name":"1_11Shape028"},{"name":"Default light"}],"meshes":[{"primitives":[{"attributes":{"POSITION":1,"NORMAL":2,"TEXCOORD_0":3},"indices":0}],"weights":[],"name":"1_8Shape014"},{"primitives":[{"attributes":{"POSITION":5,"NORMAL":6,"TEXCOORD_0":7},"indices":4}],"weights":[],"name":"1_11Shape014"},{"primitives":[{"attributes":{"POSITION":9,"NORMAL":10,"TEXCOORD_0":11},"indices":8,"material":0}],"name":"Object404"},{"primitives":[{"attributes":{"POSITION":13,"NORMAL":14},"indices":12}],"name":"1_11Shape012"}],"accessors":[{"bufferView":0,"componentType":5123,"count":24000,"type":"SCALAR","name":"accessorIndices"},{"bufferView":1,"componentType":5126,"count":24000,"max":[0.1753731,0.231794983,0.150460973],"min":[-0.140016735,-0.1772679,-0.161568731],"type":"VEC3","name":"accessorPositions"},{"bufferView":1,"byteOffset":288000,"componentType":5126,"count":24000,"type":"VEC3","name":"accessorNormals"},{"bufferView":2,"componentType":5126,"count":24000,"type":"VEC2","name":"accessorUVs"},{"bufferView":0,"byteOffset":48000,"componentType":5123,"count":24000,"type":"SCALAR","name":"accessorIndices"},{"bufferView":1,"byteOffset":576000,"componentType":5126,"count":24000,"max":[0.107618757,0.111986347,0.09640426],"min":[-0.0986962,-0.112104565,-0.09644864],"type":"VEC3","name":"accessorPositions"},{"bufferView":1,"byteOffset":864000,"componentType":5126,"count":24000,"type":"VEC3","name":"accessorNormals"},{"bufferView":2,"byteOffset":192000,"componentType":5126,"count":24000,"type":"VEC2","name":"accessorUVs"},{"bufferView":0,"byteOffset":96000,"componentType":5123,"count":2952,"type":"SCALAR","name":"accessorIndices"},{"bufferView":1,"byteOffset":1152000,"componentType":5126,"count":2952,"max":[0.8857013,0.727876246,0.678089559],"min":[-0.885700643,-0.727876246,-0.678089559],"type":"VEC3","name":"accessorPositions"},{"bufferView":1,"byteOffset":1187424,"componentType":5126,"count":2952,"type":"VEC3","name":"accessorNormals"},{"bufferView":2,"byteOffset":384000,"componentType":5126,"count":2952,"type":"VEC2","name":"accessorUVs"},{"bufferView":0,"byteOffset":101904,"componentType":5123,"count":564,"type":"SCALAR","name":"accessorIndices"},{"bufferView":1,"byteOffset":1222848,"componentType":5126,"count":564,"max":[0.103929058,0.0904463455,0.174984246],"min":[-0.100400485,-0.128740922,-0.0150012588],"type":"VEC3","name":"accessorPositions"},{"bufferView":1,"byteOffset":1229616,"componentType":5126,"count":564,"type":"VEC3","name":"accessorNormals"},{"bufferView":3,"componentType":5126,"count":7,"max":[6.66666651],"min":[0.0],"type":"SCALAR","name":"accessorAnimationInput"},{"bufferView":4,"componentType":5126,"count":7,"type":"VEC3","name":"accessorAnimationPositions"},{"bufferView":3,"byteOffset":28,"componentType":5126,"count":27,"max":[6.66666651],"min":[0.0],"type":"SCALAR","name":"accessorAnimationInput"},{"bufferView":5,"componentType":5126,"count":27,"type":"VEC4","name":"accessorAnimationRotations"},{"bufferView":3,"byteOffset":136,"componentType":5126,"count":3,"max":[6.66666651],"min":[0.0],"type":"SCALAR","name":"accessorAnimationInput"},{"bufferView":4,"byteOffset":84,"componentType":5126,"count":3,"type":"VEC3","name":"accessorAnimationScales"},{"bufferView":3,"byteOffset":148,"componentType":5126,"count":4,"max":[6.66666651],"min":[0.0],"type":"SCALAR","name":"accessorAnimationInput"},{"bufferView":4,"byteOffset":120,"componentType":5126,"count":4,"type":"VEC3","name":"accessorAnimationScales"}],"bufferViews":[{"buffer":0,"byteLength":103032,"name":"bufferViewScalar"},{"buffer":0,"byteOffset":103032,"byteLength":1236384,"byteStride":12,"name":"bufferViewFloatVec3"},{"buffer":0,"byteOffset":1339416,"byteLength":407616,"byteStride":8,"name":"bufferViewFloatVec2"},{"buffer":0,"byteOffset":1747032,"byteLength":164,"name":"bufferViewAnimationFloatScalar"},{"buffer":0,"byteOffset":1747196,"byteLength":168,"name":"bufferViewAnimationFloatVec3"},{"buffer":0,"byteOffset":1747364,"byteLength":432,"name":"bufferViewAnimationFloatVec4"}],"buffers":[{"uri":"cell.bin","byteLength":1747796}],"materials":[{"pbrMetallicRoughness":{"baseColorFactor":[0.588,0.588,0.588,1.0],"metallicFactor":0.0,"roughnessFactor":0.450053632},"name":"default"}],"animations":[{"channels":[{"sampler":0,"target":{"node":2,"path":"translation"}},{"sampler":1,"target":{"node":2,"path":"rotation"}},{"sampler":2,"target":{"node":2,"path":"scale"}},{"sampler":3,"target":{"node":3,"path":"scale"}}],"samplers":[{"input":15,"interpolation":0,"output":16},{"input":17,"interpolation":0,"output":18},{"input":19,"interpolation":0,"output":20},{"input":21,"interpolation":0,"output":22}],"name":"All Animations"}]}