{"asset":{"version":"2.0","generator":"babylon.js glTF exporter for 3dsmax 2018 v20200312.5"},"scene":0,"scenes":[{"nodes":[0,9,10,11,12,13,14,15,16,17]}],"nodes":[{"children":[1,2,3,4,5,6,7,8],"translation":[-1.588901,3.71971035,-12.0131073],"name":"Group001"},{"mesh":0,"translation":[2.273043,-0.142839357,3.383269],"name":"Object404"},{"mesh":0,"translation":[1.27241671,0.5928076,3.62541628],"rotation":[-0.838817656,0.353476167,-0.185569331,0.370139927],"scale":[1.0,1.00000012,1.0],"name":"Object405"},{"mesh":0,"translation":[0.9882175,-0.100902095,4.800632],"rotation":[0.465385616,0.6402931,-0.2576846,0.55411154],"scale":[1.00000012,0.999999762,0.99999994],"name":"Object406"},{"mesh":0,"translation":[-0.169192508,0.3230664,4.1660533],"rotation":[0.3052026,-0.6785808,-0.554184,0.373174965],"scale":[0.99999994,1.0,1.0],"name":"Object407"},{"mesh":0,"translation":[-0.793331563,-0.09388183,5.13365841],"rotation":[-0.7689624,0.186254352,-0.4553452,0.4082486],"name":"Object408"},{"mesh":0,"translation":[-1.46952665,0.474968255,3.783794],"rotation":[-0.580791652,0.491903335,0.648543954,-0.010143959],"scale":[1.00000012,1.0,1.00000024],"name":"Object409"},{"mesh":0,"translation":[-2.39072752,-0.568410635,3.25334215],"rotation":[-0.7542407,0.5945491,0.218623847,0.172730789],"name":"Object410"},{"mesh":0,"translation":[0.612244546,-0.3311743,3.383269],"rotation":[0.0,-0.9299405,0.0,0.3677101],"name":"Object411"},{"mesh":1,"translation":[-2.48236227,3.63829613,-6.9758215],"rotation":[0.49999997,-0.50000006,0.5000001,0.49999997],"name":"GeoSphere001"},{"mesh":1,"translation":[-0.6792361,3.39469576,-7.22517252],"rotation":[0.49999997,-0.50000006,0.5000001,0.49999997],"name":"GeoSphere002"},{"mesh":1,"translation":[-3.947767,3.04635215,-8.692471],"rotation":[0.49999997,-0.50000006,0.5000001,0.49999997],"name":"GeoSphere003"},{"mesh":1,"translation":[-2.985024,4.115947,-8.390213],"rotation":[0.49999997,-0.50000006,0.5000001,0.49999997],"name":"GeoSphere004"},{"mesh":1,"translation":[-1.5665673,3.88427687,-7.83157349],"rotation":[0.49999997,-0.50000006,0.5000001,0.49999997],"name":"GeoSphere005"},{"mesh":1,"translation":[-0.8616165,3.339835,-8.898679],"rotation":[0.49999997,-0.50000006,0.5000001,0.49999997],"name":"GeoSphere006"},{"mesh":1,"translation":[0.6841418,3.576871,-8.629839],"rotation":[0.49999997,-0.50000006,0.5000001,0.49999997],"name":"GeoSphere007"},{"mesh":1,"translation":[-0.316484362,4.312518,-8.3876915],"rotation":[0.49999997,-0.50000006,0.5000001,0.49999997],"name":"GeoSphere008"},{"name":"Default light"}],"meshes":[{"primitives":[{"attributes":{"POSITION":1,"TANGENT":2,"NORMAL":3,"TEXCOORD_0":4},"indices":0,"material":0}],"name":"Object404"},{"primitives":[{"attributes":{"POSITION":6,"TANGENT":7,"NORMAL":8,"TEXCOORD_0":9},"indices":5,"material":1}],"name":"GeoSphere001"}],"accessors":[{"bufferView":0,"componentType":5123,"count":2952,"type":"SCALAR","name":"accessorIndices"},{"bufferView":1,"componentType":5126,"count":2952,"max":[0.8857013,0.727876246,0.678089559],"min":[-0.885700643,-0.727876246,-0.678089559],"type":"VEC3","name":"accessorPositions"},{"bufferView":2,"componentType":5126,"count":2952,"type":"VEC4","name":"accessorTangents"},{"bufferView":1,"byteOffset":35424,"componentType":5126,"count":2952,"type":"VEC3","name":"accessorNormals"},{"bufferView":3,"componentType":5126,"count":2952,"type":"VEC2","name":"accessorUVs"},{"bufferView":0,"byteOffset":5904,"componentType":5123,"count":540,"type":"SCALAR","name":"accessorIndices"},{"bufferView":1,"byteOffset":70848,"componentType":5126,"count":540,"max":[0.440746516,0.447251469,0.439658731],"min":[-0.440746456,-0.447251469,-0.4396587],"type":"VEC3","name":"accessorPositions"},{"bufferView":2,"byteOffset":47232,"componentType":5126,"count":540,"type":"VEC4","name":"accessorTangents"},{"bufferView":1,"byteOffset":77328,"componentType":5126,"count":540,"type":"VEC3","name":"accessorNormals"},{"bufferView":3,"byteOffset":23616,"componentType":5126,"count":540,"type":"VEC2","name":"accessorUVs"}],"bufferViews":[{"buffer":0,"byteLength":6984,"name":"bufferViewScalar"},{"buffer":0,"byteOffset":6984,"byteLength":83808,"byteStride":12,"name":"bufferViewFloatVec3"},{"buffer":0,"byteOffset":90792,"byteLength":55872,"byteStride":16,"name":"bufferViewFloatVec4"},{"buffer":0,"byteOffset":146664,"byteLength":27936,"byteStride":8,"name":"bufferViewFloatVec2"}],"buffers":[{"uri":"CellCluster.bin","byteLength":174600}],"materials":[{"pbrMetallicRoughness":{"baseColorFactor":[0.5019608,0.0,0.195006132,1.0],"metallicFactor":0.0,"roughnessFactor":0.1},"name":"Cluster"},{"pbrMetallicRoughness":{"baseColorFactor":[0.0,0.0509803966,0.5372549,1.0],"metallicFactor":0.0,"roughnessFactor":0.1},"name":"ClusterNucleus"}]}