{"asset":{"version":"2.0","generator":"babylon.js glTF exporter for 3dsmax 2019 v20200312.5"},"scene":0,"scenes":[{"nodes":[0,1]}],"nodes":[{"mesh":0,"translation":[6.41698,0.0,0.0],"rotation":[-0.376689672,-0.03995188,-0.6890436,0.617841244],"scale":[6.00000143,6.00000048,6.00000143],"name":"1_8Shape024"},{"name":"Default light"}],"meshes":[{"primitives":[{"attributes":{"POSITION":1,"NORMAL":2,"TEXCOORD_0":3},"indices":0,"targets":[{"POSITION":4,"NORMAL":5},{"POSITION":6,"NORMAL":7},{"POSITION":8,"NORMAL":9}]}],"weights":[0.0,0.0,0.0],"name":"1_8Shape024"}],"accessors":[{"bufferView":0,"componentType":5123,"count":24000,"type":"SCALAR","name":"accessorIndices"},{"bufferView":1,"componentType":5126,"count":24000,"max":[0.1753731,0.231794983,0.150460973],"min":[-0.140016735,-0.1772679,-0.161568731],"type":"VEC3","name":"accessorPositions"},{"bufferView":1,"byteOffset":288000,"componentType":5126,"count":24000,"type":"VEC3","name":"accessorNormals"},{"bufferView":2,"componentType":5126,"count":24000,"type":"VEC2","name":"accessorUVs"},{"bufferView":1,"byteOffset":576000,"componentType":5126,"count":24000,"max":[0.06624037,0.06773739,0.0643467754],"min":[-0.0342019424,-0.06911323,-0.08605684],"type":"VEC3","name":"accessorTargetPositions"},{"bufferView":1,"byteOffset":864000,"componentType":5126,"count":24000,"type":"VEC3","name":"accessorTargetNormals"},{"bufferView":1,"byteOffset":1152000,"componentType":5126,"count":24000,"max":[0.0284647383,0.0365541428,0.05283117],"min":[-0.0199595839,-0.0358216651,-0.0413422659],"type":"VEC3","name":"accessorTargetPositions"},{"bufferView":1,"byteOffset":1440000,"componentType":5126,"count":24000,"type":"VEC3","name":"accessorTargetNormals"},{"bufferView":1,"byteOffset":1728000,"componentType":5126,"count":24000,"max":[0.0587399453,0.0336779132,0.0651707351],"min":[-0.027993802,-0.0567004159,-0.0824267939],"type":"VEC3","name":"accessorTargetPositions"},{"bufferView":1,"byteOffset":2016000,"componentType":5126,"count":24000,"type":"VEC3","name":"accessorTargetNormals"},{"bufferView":3,"componentType":5126,"count":2,"max":[5.0],"min":[0.0],"type":"SCALAR","name":"accessorAnimationInput"},{"bufferView":4,"componentType":5126,"count":2,"type":"VEC3","name":"accessorAnimationScales"},{"bufferView":3,"byteOffset":8,"componentType":5126,"count":4,"max":[5.0],"min":[0.0],"type":"SCALAR","name":"accessorAnimationInput"},{"bufferView":3,"byteOffset":24,"componentType":5126,"count":12,"type":"SCALAR","name":"accessorAnimationWeights"}],"bufferViews":[{"buffer":0,"byteLength":48000,"name":"bufferViewScalar"},{"buffer":0,"byteOffset":48000,"byteLength":2304000,"byteStride":12,"name":"bufferViewFloatVec3"},{"buffer":0,"byteOffset":2352000,"byteLength":192000,"byteStride":8,"name":"bufferViewFloatVec2"},{"buffer":0,"byteOffset":2544000,"byteLength":72,"name":"bufferViewAnimationFloatScalar"},{"buffer":0,"byteOffset":2544072,"byteLength":24,"name":"bufferViewAnimationFloatVec3"}],"buffers":[{"uri":"conveyorTest3.bin","byteLength":2544096}],"animations":[{"channels":[{"sampler":0,"target":{"node":0,"path":"scale"}},{"sampler":1,"target":{"node":0,"path":"weights"}}],"samplers":[{"input":10,"interpolation":0,"output":11},{"input":12,"interpolation":0,"output":13}],"name":"All Animations"}]}