{"asset":{"version":"2.0","generator":"babylon.js glTF exporter for 3dsmax 2019 v20200312.5"},"scene":0,"scenes":[{"nodes":[0,1]}],"nodes":[{"mesh":0,"translation":[3.042593,0.0,0.0],"rotation":[-0.376689672,-0.03995188,-0.6890436,0.617841244],"scale":[6.00000143,6.00000048,6.00000143],"name":"1_8Shape024"},{"name":"Default light"}],"meshes":[{"primitives":[{"attributes":{"POSITION":1,"NORMAL":2,"TEXCOORD_0":3},"indices":0}],"weights":[],"name":"1_8Shape024"}],"accessors":[{"bufferView":0,"componentType":5123,"count":24000,"type":"SCALAR","name":"accessorIndices"},{"bufferView":1,"componentType":5126,"count":24000,"max":[0.1753731,0.231794983,0.150460973],"min":[-0.140016735,-0.1772679,-0.161568731],"type":"VEC3","name":"accessorPositions"},{"bufferView":1,"byteOffset":288000,"componentType":5126,"count":24000,"type":"VEC3","name":"accessorNormals"},{"bufferView":2,"componentType":5126,"count":24000,"type":"VEC2","name":"accessorUVs"}],"bufferViews":[{"buffer":0,"byteLength":48000,"name":"bufferViewScalar"},{"buffer":0,"byteOffset":48000,"byteLength":576000,"byteStride":12,"name":"bufferViewFloatVec3"},{"buffer":0,"byteOffset":624000,"byteLength":192000,"byteStride":8,"name":"bufferViewFloatVec2"}],"buffers":[{"uri":"conveyorTest3.bin","byteLength":816000}]}