{"asset":{"version":"2.0","generator":"babylon.js glTF exporter for 3dsmax 2019 v20200312.5"},"scene":0,"scenes":[{"nodes":[0,1]}],"nodes":[{"mesh":0,"translation":[6.41698,0.0,0.0],"rotation":[-0.376689672,-0.03995188,-0.6890436,0.617841244],"scale":[6.00000143,6.00000048,6.00000143],"name":"1_8Shape024"},{"name":"Default light"}],"meshes":[{"primitives":[{"attributes":{"POSITION":1,"NORMAL":2,"TEXCOORD_0":3},"indices":0,"targets":[{"POSITION":4,"NORMAL":5}]}],"weights":[0.0],"name":"1_8Shape024"}],"accessors":[{"bufferView":0,"componentType":5123,"count":24000,"type":"SCALAR","name":"accessorIndices"},{"bufferView":1,"componentType":5126,"count":24000,"max":[0.1753731,0.231794983,0.150460973],"min":[-0.140016735,-0.1772679,-0.161568731],"type":"VEC3","name":"accessorPositions"},{"bufferView":1,"byteOffset":288000,"componentType":5126,"count":24000,"type":"VEC3","name":"accessorNormals"},{"bufferView":2,"componentType":5126,"count":24000,"type":"VEC2","name":"accessorUVs"},{"bufferView":1,"byteOffset":576000,"componentType":5126,"count":24000,"max":[0.06624037,0.06773739,0.0643467754],"min":[-0.0342019424,-0.06911323,-0.08605684],"type":"VEC3","name":"accessorTargetPositions"},{"bufferView":1,"byteOffset":864000,"componentType":5126,"count":24000,"type":"VEC3","name":"accessorTargetNormals"},{"bufferView":3,"componentType":5126,"count":2,"max":[40.0333328],"min":[0.0],"type":"SCALAR","name":"accessorAnimationInput"},{"bufferView":4,"componentType":5126,"count":2,"type":"VEC3","name":"accessorAnimationScales"},{"bufferView":3,"byteOffset":8,"componentType":5126,"count":3,"max":[40.0333328],"min":[0.0],"type":"SCALAR","name":"accessorAnimationInput"},{"bufferView":3,"byteOffset":20,"componentType":5126,"count":3,"type":"SCALAR","name":"accessorAnimationWeights"}],"bufferViews":[{"buffer":0,"byteLength":48000,"name":"bufferViewScalar"},{"buffer":0,"byteOffset":48000,"byteLength":1152000,"byteStride":12,"name":"bufferViewFloatVec3"},{"buffer":0,"byteOffset":1200000,"byteLength":192000,"byteStride":8,"name":"bufferViewFloatVec2"},{"buffer":0,"byteOffset":1392000,"byteLength":32,"name":"bufferViewAnimationFloatScalar"},{"buffer":0,"byteOffset":1392032,"byteLength":24,"name":"bufferViewAnimationFloatVec3"}],"buffers":[{"uri":"conveyorTest3.bin","byteLength":1392056}],"animations":[{"channels":[{"sampler":0,"target":{"node":0,"path":"scale"}},{"sampler":1,"target":{"node":0,"path":"weights"}}],"samplers":[{"input":6,"interpolation":0,"output":7},{"input":8,"interpolation":0,"output":9}],"name":"All Animations"}]}