{"asset":{"version":"2.0","generator":"babylon.js glTF exporter for 3dsmax 2019 v20200312.5"},"scene":0,"scenes":[{"nodes":[0,1]}],"nodes":[{"mesh":0,"rotation":[-0.5727717,0.304784924,-0.4009005,0.64677465],"scale":[0.009265622,0.009265622,0.009265619],"name":"1_8Shape023"},{"name":"Default light"}],"meshes":[{"primitives":[{"attributes":{"POSITION":1,"NORMAL":2,"TEXCOORD_0":3},"indices":0}],"weights":[],"name":"1_8Shape023"}],"accessors":[{"bufferView":0,"componentType":5123,"count":24000,"type":"SCALAR","name":"accessorIndices"},{"bufferView":1,"componentType":5126,"count":24000,"max":[0.234831125,0.238418132,0.188482374],"min":[-0.153457955,-0.206843063,-0.24126254],"type":"VEC3","name":"accessorPositions"},{"bufferView":1,"byteOffset":288000,"componentType":5126,"count":24000,"type":"VEC3","name":"accessorNormals"},{"bufferView":2,"componentType":5126,"count":24000,"type":"VEC2","name":"accessorUVs"},{"bufferView":3,"componentType":5126,"count":19,"max":[40.0333328],"min":[0.0],"type":"SCALAR","name":"accessorAnimationInput"},{"bufferView":4,"componentType":5126,"count":19,"type":"VEC4","name":"accessorAnimationRotations"},{"bufferView":3,"byteOffset":76,"componentType":5126,"count":13,"max":[40.0333328],"min":[0.0],"type":"SCALAR","name":"accessorAnimationInput"},{"bufferView":5,"componentType":5126,"count":13,"type":"VEC3","name":"accessorAnimationScales"}],"bufferViews":[{"buffer":0,"byteLength":48000,"name":"bufferViewScalar"},{"buffer":0,"byteOffset":48000,"byteLength":576000,"byteStride":12,"name":"bufferViewFloatVec3"},{"buffer":0,"byteOffset":624000,"byteLength":192000,"byteStride":8,"name":"bufferViewFloatVec2"},{"buffer":0,"byteOffset":816000,"byteLength":128,"name":"bufferViewAnimationFloatScalar"},{"buffer":0,"byteOffset":816128,"byteLength":304,"name":"bufferViewAnimationFloatVec4"},{"buffer":0,"byteOffset":816432,"byteLength":156,"name":"bufferViewAnimationFloatVec3"}],"buffers":[{"uri":"conveyorTest3.bin","byteLength":816588}],"animations":[{"channels":[{"sampler":0,"target":{"node":0,"path":"rotation"}},{"sampler":1,"target":{"node":0,"path":"scale"}}],"samplers":[{"input":4,"interpolation":0,"output":5},{"input":6,"interpolation":0,"output":7}],"name":"All Animations"}]}