{"asset":{"version":"2.0","generator":"babylon.js glTF exporter for 3ds max 2018 v1.4.2"},"scene":0,"scenes":[{"nodes":[0,1],"extensions":{}}],"nodes":[{"mesh":0,"translation":[3.81469727E-06,0.0,0.0],"rotation":[0.0,0.0,0.0,1.0],"scale":[1.0,1.0,1.0],"name":"high"},{"translation":[0.0,0.0,0.0],"rotation":[0.0,0.0,0.0,1.0],"scale":[1.0,1.0,1.0],"name":"Default light"}],"meshes":[{"primitives":[{"attributes":{"POSITION":1,"NORMAL":2,"TEXCOORD_0":3},"indices":0,"mode":4}],"name":"high"}],"accessors":[{"bufferView":0,"componentType":5125,"count":138105,"type":"SCALAR","name":"accessorIndices"},{"bufferView":1,"componentType":5126,"count":138105,"max":[37.6366577,54.6525574,24.0021267],"min":[-42.0314636,-59.005764,-45.1384621],"type":"VEC3","name":"accessorPositions"},{"bufferView":1,"byteOffset":1657260,"componentType":5126,"count":138105,"type":"VEC3","name":"accessorNormals"},{"bufferView":2,"componentType":5126,"count":138105,"type":"VEC2","name":"accessorUVs"}],"bufferViews":[{"buffer":0,"byteLength":552420,"name":"bufferViewScalar"},{"buffer":0,"byteOffset":552420,"byteLength":3314520,"byteStride":12,"name":"bufferViewFloatVec3"},{"buffer":0,"byteOffset":3866940,"byteLength":1104840,"byteStride":8,"name":"bufferViewFloatVec2"}],"buffers":[{"uri":"heart.bin","byteLength":4971780}]}