{"asset":{"version":"2.0","generator":"babylon.js glTF exporter for 3dsmax 2019 v20200312.5"},"scene":0,"scenes":[{"nodes":[0,2]}],"nodes":[{"children":[1],"translation":[-1.55521727,6.58552,-26.00785],"name":"Dummy003"},{"mesh":0,"translation":[3.05175774E-07,0.0,0.0],"rotation":[-0.0109517779,0.00326647935,-0.02812398,0.9995391],"scale":[1.00328481,1.000563,1.003802],"name":"Object417"},{"name":"Default light"}],"meshes":[{"primitives":[{"attributes":{"POSITION":1,"NORMAL":2,"TEXCOORD_0":3},"indices":0,"targets":[{"POSITION":4,"NORMAL":5}]}],"weights":[0.0],"name":"Object417"}],"accessors":[{"bufferView":0,"componentType":5123,"count":2952,"type":"SCALAR","name":"accessorIndices"},{"bufferView":1,"componentType":5126,"count":2952,"max":[0.871514857,0.3066913,0.8414117],"min":[-0.871514857,-0.306691259,-0.8414105],"type":"VEC3","name":"accessorPositions"},{"bufferView":1,"byteOffset":35424,"componentType":5126,"count":2952,"type":"VEC3","name":"accessorNormals"},{"bufferView":2,"componentType":5126,"count":2952,"type":"VEC2","name":"accessorUVs"},{"bufferView":1,"byteOffset":70848,"componentType":5126,"count":2952,"max":[0.42105037,0.5472796,0.1747995],"min":[-0.4123395,-0.60277164,-0.423823535],"type":"VEC3","name":"accessorTargetPositions"},{"bufferView":1,"byteOffset":106272,"componentType":5126,"count":2952,"type":"VEC3","name":"accessorTargetNormals"},{"bufferView":3,"componentType":5126,"count":2,"max":[7.0666666],"min":[0.0],"type":"SCALAR","name":"accessorAnimationInput"},{"bufferView":4,"componentType":5126,"count":2,"type":"VEC3","name":"accessorAnimationScales"}],"bufferViews":[{"buffer":0,"byteLength":5904,"name":"bufferViewScalar"},{"buffer":0,"byteOffset":5904,"byteLength":141696,"byteStride":12,"name":"bufferViewFloatVec3"},{"buffer":0,"byteOffset":147600,"byteLength":23616,"byteStride":8,"name":"bufferViewFloatVec2"},{"buffer":0,"byteOffset":171216,"byteLength":8,"name":"bufferViewAnimationFloatScalar"},{"buffer":0,"byteOffset":171224,"byteLength":24,"name":"bufferViewAnimationFloatVec3"}],"buffers":[{"uri":"RBC.bin","byteLength":171248}],"animations":[{"channels":[{"sampler":0,"target":{"node":1,"path":"scale"}}],"samplers":[{"input":6,"interpolation":0,"output":7}],"name":"rbc"}]}