{"asset":{"version":"2.0","generator":"babylon.js glTF exporter for 3dsmax 2019 v20200312.5"},"scene":0,"scenes":[{"nodes":[0,1]}],"nodes":[{"mesh":0,"translation":[-1.55388689,3.31942248,-8.56176949],"scale":[0.0,0.0,0.0],"name":"Object412"},{"name":"Default light"}],"meshes":[{"primitives":[{"attributes":{"POSITION":1,"NORMAL":2,"TEXCOORD_0":3},"indices":0,"material":0,"targets":[{"POSITION":4,"NORMAL":5}]}],"weights":[0.0],"name":"Object412"}],"accessors":[{"bufferView":0,"componentType":5123,"count":2952,"type":"SCALAR","name":"accessorIndices"},{"bufferView":1,"componentType":5126,"count":2952,"max":[0.8857013,0.727876246,0.678089559],"min":[-0.885700643,-0.727876246,-0.678089559],"type":"VEC3","name":"accessorPositions"},{"bufferView":1,"byteOffset":35424,"componentType":5126,"count":2952,"type":"VEC3","name":"accessorNormals"},{"bufferView":2,"componentType":5126,"count":2952,"type":"VEC2","name":"accessorUVs"},{"bufferView":1,"byteOffset":70848,"componentType":5126,"count":2952,"max":[0.243369728,0.218146652,0.217568964],"min":[-0.243369728,-0.218146652,-0.217568964],"type":"VEC3","name":"accessorTargetPositions"},{"bufferView":1,"byteOffset":106272,"componentType":5126,"count":2952,"type":"VEC3","name":"accessorTargetNormals"},{"bufferView":3,"componentType":5126,"count":26,"max":[7.0666666],"min":[0.0],"type":"SCALAR","name":"accessorAnimationInput"},{"bufferView":4,"componentType":5126,"count":26,"type":"VEC3","name":"accessorAnimationPositions"},{"bufferView":3,"byteOffset":104,"componentType":5126,"count":32,"max":[7.0666666],"min":[0.0],"type":"SCALAR","name":"accessorAnimationInput"},{"bufferView":5,"componentType":5126,"count":32,"type":"VEC4","name":"accessorAnimationRotations"},{"bufferView":3,"byteOffset":232,"componentType":5126,"count":29,"max":[7.0666666],"min":[0.0],"type":"SCALAR","name":"accessorAnimationInput"},{"bufferView":4,"byteOffset":312,"componentType":5126,"count":29,"type":"VEC3","name":"accessorAnimationScales"}],"bufferViews":[{"buffer":0,"byteLength":5904,"name":"bufferViewScalar"},{"buffer":0,"byteOffset":5904,"byteLength":141696,"byteStride":12,"name":"bufferViewFloatVec3"},{"buffer":0,"byteOffset":147600,"byteLength":23616,"byteStride":8,"name":"bufferViewFloatVec2"},{"buffer":0,"byteOffset":171216,"byteLength":348,"name":"bufferViewAnimationFloatScalar"},{"buffer":0,"byteOffset":171564,"byteLength":660,"name":"bufferViewAnimationFloatVec3"},{"buffer":0,"byteOffset":172224,"byteLength":512,"name":"bufferViewAnimationFloatVec4"}],"buffers":[{"uri":"RBC.bin","byteLength":172736}],"materials":[{"pbrMetallicRoughness":{"baseColorFactor":[0.8,0.8,0.8,1.0],"metallicFactor":0.0,"roughnessFactor":0.2},"name":"07 - Default"}],"animations":[{"channels":[{"sampler":0,"target":{"node":0,"path":"translation"}},{"sampler":1,"target":{"node":0,"path":"rotation"}},{"sampler":2,"target":{"node":0,"path":"scale"}}],"samplers":[{"input":6,"interpolation":0,"output":7},{"input":8,"interpolation":0,"output":9},{"input":10,"interpolation":0,"output":11}],"name":"rbc"}]}