{"asset":{"version":"2.0","generator":"babylon.js glTF exporter for 3dsmax 2019 v20200312.5"},"scene":0,"scenes":[{"nodes":[0,2]}],"nodes":[{"children":[1],"mesh":0,"translation":[-1.55388689,3.31942248,-8.56176949],"scale":[0.0,0.0,0.0],"name":"Object412"},{"mesh":1,"scale":[0.0,0.0,0.0],"name":"1_11Shape014"},{"name":"Default light"}],"meshes":[{"primitives":[{"attributes":{"POSITION":1,"TANGENT":2,"NORMAL":3,"TEXCOORD_0":4},"indices":0,"material":0,"targets":[{"POSITION":5,"NORMAL":6,"TANGENT":7}]}],"weights":[0.0],"name":"Object412"},{"primitives":[{"attributes":{"POSITION":9,"TANGENT":10,"NORMAL":11,"TEXCOORD_0":12},"indices":8,"material":0}],"weights":[],"name":"1_11Shape014"}],"accessors":[{"bufferView":0,"componentType":5123,"count":2952,"type":"SCALAR","name":"accessorIndices"},{"bufferView":1,"componentType":5126,"count":2952,"max":[0.8857013,0.727876246,0.678089559],"min":[-0.885700643,-0.727876246,-0.678089559],"type":"VEC3","name":"accessorPositions"},{"bufferView":2,"componentType":5126,"count":2952,"type":"VEC4","name":"accessorTangents"},{"bufferView":1,"byteOffset":35424,"componentType":5126,"count":2952,"type":"VEC3","name":"accessorNormals"},{"bufferView":3,"componentType":5126,"count":2952,"type":"VEC2","name":"accessorUVs"},{"bufferView":1,"byteOffset":70848,"componentType":5126,"count":2952,"max":[0.243369728,0.218146652,0.217568964],"min":[-0.243369728,-0.218146652,-0.217568964],"type":"VEC3","name":"accessorTargetPositions"},{"bufferView":1,"byteOffset":106272,"componentType":5126,"count":2952,"type":"VEC3","name":"accessorTargetNormals"},{"bufferView":1,"byteOffset":141696,"componentType":5126,"count":2952,"type":"VEC3","name":"accessorTargetTangents"},{"bufferView":0,"byteOffset":5904,"componentType":5123,"count":24000,"type":"SCALAR","name":"accessorIndices"},{"bufferView":1,"byteOffset":177120,"componentType":5126,"count":24000,"max":[0.107618757,0.111986347,0.09640426],"min":[-0.0986962,-0.112104565,-0.09644864],"type":"VEC3","name":"accessorPositions"},{"bufferView":2,"byteOffset":47232,"componentType":5126,"count":24000,"type":"VEC4","name":"accessorTangents"},{"bufferView":1,"byteOffset":465120,"componentType":5126,"count":24000,"type":"VEC3","name":"accessorNormals"},{"bufferView":3,"byteOffset":23616,"componentType":5126,"count":24000,"type":"VEC2","name":"accessorUVs"},{"bufferView":4,"componentType":5126,"count":26,"max":[7.0666666],"min":[0.0],"type":"SCALAR","name":"accessorAnimationInput"},{"bufferView":5,"componentType":5126,"count":26,"type":"VEC3","name":"accessorAnimationPositions"},{"bufferView":4,"byteOffset":104,"componentType":5126,"count":32,"max":[7.0666666],"min":[0.0],"type":"SCALAR","name":"accessorAnimationInput"},{"bufferView":6,"componentType":5126,"count":32,"type":"VEC4","name":"accessorAnimationRotations"},{"bufferView":4,"byteOffset":232,"componentType":5126,"count":29,"max":[7.0666666],"min":[0.0],"type":"SCALAR","name":"accessorAnimationInput"},{"bufferView":5,"byteOffset":312,"componentType":5126,"count":29,"type":"VEC3","name":"accessorAnimationScales"},{"bufferView":4,"byteOffset":348,"componentType":5126,"count":9,"max":[7.0666666],"min":[0.0],"type":"SCALAR","name":"accessorAnimationInput"},{"bufferView":5,"byteOffset":660,"componentType":5126,"count":9,"type":"VEC3","name":"accessorAnimationScales"}],"bufferViews":[{"buffer":0,"byteLength":53904,"name":"bufferViewScalar"},{"buffer":0,"byteOffset":53904,"byteLength":753120,"byteStride":12,"name":"bufferViewFloatVec3"},{"buffer":0,"byteOffset":807024,"byteLength":431232,"byteStride":16,"name":"bufferViewFloatVec4"},{"buffer":0,"byteOffset":1238256,"byteLength":215616,"byteStride":8,"name":"bufferViewFloatVec2"},{"buffer":0,"byteOffset":1453872,"byteLength":384,"name":"bufferViewAnimationFloatScalar"},{"buffer":0,"byteOffset":1454256,"byteLength":768,"name":"bufferViewAnimationFloatVec3"},{"buffer":0,"byteOffset":1455024,"byteLength":512,"name":"bufferViewAnimationFloatVec4"}],"buffers":[{"uri":"RBC.bin","byteLength":1455536}],"materials":[{"pbrMetallicRoughness":{"baseColorFactor":[0.8,0.8,0.8,1.0],"metallicFactor":0.0,"roughnessFactor":0.2},"name":"07 - Default"}],"animations":[{"channels":[{"sampler":0,"target":{"node":0,"path":"translation"}},{"sampler":1,"target":{"node":0,"path":"rotation"}},{"sampler":2,"target":{"node":0,"path":"scale"}},{"sampler":3,"target":{"node":1,"path":"scale"}}],"samplers":[{"input":13,"interpolation":0,"output":14},{"input":15,"interpolation":0,"output":16},{"input":17,"interpolation":0,"output":18},{"input":19,"interpolation":0,"output":20}],"name":"rbc"}]}