{"asset":{"version":"2.0","generator":"babylon.js glTF exporter for 3dsmax 2019 v20200312.5"},"scene":0,"scenes":[{"nodes":[0,1]}],"nodes":[{"mesh":0,"translation":[-1.55521464,2.85772634,-8.782905],"scale":[0.0,0.0,0.0],"name":"RBC"},{"name":"Default light"}],"meshes":[{"primitives":[{"attributes":{"POSITION":1,"TANGENT":2,"NORMAL":3,"TEXCOORD_0":4},"indices":0,"material":0,"targets":[{"POSITION":5,"NORMAL":6,"TANGENT":7}]}],"weights":[0.0],"name":"RBC"}],"accessors":[{"bufferView":0,"componentType":5123,"count":2952,"type":"SCALAR","name":"accessorIndices"},{"bufferView":1,"componentType":5126,"count":2952,"max":[1.08462918,0.6667826,1.11987436],"min":[-1.23042619,-0.658385754,-0.8131576],"type":"VEC3","name":"accessorPositions"},{"bufferView":2,"componentType":5126,"count":2952,"type":"VEC4","name":"accessorTangents"},{"bufferView":1,"byteOffset":35424,"componentType":5126,"count":2952,"type":"VEC3","name":"accessorNormals"},{"bufferView":3,"componentType":5126,"count":2952,"type":"VEC2","name":"accessorUVs"},{"bufferView":1,"byteOffset":70848,"componentType":5126,"count":2952,"max":[0.476678669,0.5853322,0.2601731],"min":[-0.337300837,-0.5379334,-0.324507475],"type":"VEC3","name":"accessorTargetPositions"},{"bufferView":1,"byteOffset":106272,"componentType":5126,"count":2952,"type":"VEC3","name":"accessorTargetNormals"},{"bufferView":1,"byteOffset":141696,"componentType":5126,"count":2952,"type":"VEC3","name":"accessorTargetTangents"},{"bufferView":4,"componentType":5126,"count":47,"max":[4.0],"min":[0.0],"type":"SCALAR","name":"accessorAnimationInput"},{"bufferView":5,"componentType":5126,"count":47,"type":"VEC3","name":"accessorAnimationPositions"},{"bufferView":4,"byteOffset":188,"componentType":5126,"count":27,"max":[4.0],"min":[0.0],"type":"SCALAR","name":"accessorAnimationInput"},{"bufferView":6,"componentType":5126,"count":27,"type":"VEC4","name":"accessorAnimationRotations"},{"bufferView":4,"byteOffset":296,"componentType":5126,"count":21,"max":[4.0],"min":[0.0],"type":"SCALAR","name":"accessorAnimationInput"},{"bufferView":5,"byteOffset":564,"componentType":5126,"count":21,"type":"VEC3","name":"accessorAnimationScales"},{"bufferView":4,"byteOffset":380,"componentType":5126,"count":3,"max":[4.0],"min":[0.0],"type":"SCALAR","name":"accessorAnimationInput"},{"bufferView":4,"byteOffset":392,"componentType":5126,"count":3,"type":"SCALAR","name":"accessorAnimationWeights"}],"bufferViews":[{"buffer":0,"byteLength":5904,"name":"bufferViewScalar"},{"buffer":0,"byteOffset":5904,"byteLength":177120,"byteStride":12,"name":"bufferViewFloatVec3"},{"buffer":0,"byteOffset":183024,"byteLength":47232,"byteStride":16,"name":"bufferViewFloatVec4"},{"buffer":0,"byteOffset":230256,"byteLength":23616,"byteStride":8,"name":"bufferViewFloatVec2"},{"buffer":0,"byteOffset":253872,"byteLength":404,"name":"bufferViewAnimationFloatScalar"},{"buffer":0,"byteOffset":254276,"byteLength":816,"name":"bufferViewAnimationFloatVec3"},{"buffer":0,"byteOffset":255092,"byteLength":432,"name":"bufferViewAnimationFloatVec4"}],"buffers":[{"uri":"RBC.bin","byteLength":255524}],"materials":[{"pbrMetallicRoughness":{"baseColorFactor":[0.401568651,0.0,0.1560049,1.0],"metallicFactor":0.0,"roughnessFactor":0.2},"name":"RBC"}],"animations":[{"channels":[{"sampler":0,"target":{"node":0,"path":"translation"}},{"sampler":1,"target":{"node":0,"path":"rotation"}},{"sampler":2,"target":{"node":0,"path":"scale"}},{"sampler":3,"target":{"node":0,"path":"weights"}}],"samplers":[{"input":8,"interpolation":0,"output":9},{"input":10,"interpolation":0,"output":11},{"input":12,"interpolation":0,"output":13},{"input":14,"interpolation":0,"output":15}],"name":"All Animations"}]}