{"asset":{"version":"2.0","generator":"babylon.js glTF exporter for 3dsmax 2019 v20200312.5"},"scene":0,"scenes":[{"nodes":[0,3]}],"nodes":[{"children":[1,2],"translation":[-1.55388689,3.31942248,-8.56176949],"scale":[0.0,0.0,0.0],"name":"Dummy002"},{"mesh":0,"scale":[0.0,0.0,0.0],"name":"Object414"},{"mesh":1,"scale":[0.0,0.0,0.0],"name":"1_11Shape014"},{"name":"Default light"}],"meshes":[{"primitives":[{"attributes":{"POSITION":1,"NORMAL":2,"TEXCOORD_0":3},"indices":0,"targets":[{"POSITION":4,"NORMAL":5}]}],"weights":[0.0],"name":"Object414"},{"primitives":[{"attributes":{"POSITION":7,"NORMAL":8,"TEXCOORD_0":9},"indices":6}],"weights":[],"name":"1_11Shape014"}],"accessors":[{"bufferView":0,"componentType":5123,"count":2952,"type":"SCALAR","name":"accessorIndices"},{"bufferView":1,"componentType":5126,"count":2952,"max":[0.871514857,0.3066913,0.8414117],"min":[-0.871514857,-0.306691259,-0.8414105],"type":"VEC3","name":"accessorPositions"},{"bufferView":1,"byteOffset":35424,"componentType":5126,"count":2952,"type":"VEC3","name":"accessorNormals"},{"bufferView":2,"componentType":5126,"count":2952,"type":"VEC2","name":"accessorUVs"},{"bufferView":1,"byteOffset":70848,"componentType":5126,"count":2952,"max":[0.42105037,0.5472796,0.1747995],"min":[-0.4123395,-0.60277164,-0.423823535],"type":"VEC3","name":"accessorTargetPositions"},{"bufferView":1,"byteOffset":106272,"componentType":5126,"count":2952,"type":"VEC3","name":"accessorTargetNormals"},{"bufferView":0,"byteOffset":5904,"componentType":5123,"count":24000,"type":"SCALAR","name":"accessorIndices"},{"bufferView":1,"byteOffset":141696,"componentType":5126,"count":24000,"max":[0.107618757,0.111986347,0.09640426],"min":[-0.0986962,-0.112104565,-0.09644864],"type":"VEC3","name":"accessorPositions"},{"bufferView":1,"byteOffset":429696,"componentType":5126,"count":24000,"type":"VEC3","name":"accessorNormals"},{"bufferView":2,"byteOffset":23616,"componentType":5126,"count":24000,"type":"VEC2","name":"accessorUVs"},{"bufferView":3,"componentType":5126,"count":213,"max":[7.0666666],"min":[0.0],"type":"SCALAR","name":"accessorAnimationInput"},{"bufferView":4,"componentType":5126,"count":213,"type":"VEC3","name":"accessorAnimationPositions"},{"bufferView":3,"byteOffset":852,"componentType":5126,"count":213,"max":[7.0666666],"min":[0.0],"type":"SCALAR","name":"accessorAnimationInput"},{"bufferView":5,"componentType":5126,"count":213,"type":"VEC4","name":"accessorAnimationRotations"},{"bufferView":3,"byteOffset":1704,"componentType":5126,"count":213,"max":[7.0666666],"min":[0.0],"type":"SCALAR","name":"accessorAnimationInput"},{"bufferView":4,"byteOffset":2556,"componentType":5126,"count":213,"type":"VEC3","name":"accessorAnimationScales"},{"bufferView":3,"byteOffset":2556,"componentType":5126,"count":2,"max":[7.0666666],"min":[0.0],"type":"SCALAR","name":"accessorAnimationInput"},{"bufferView":4,"byteOffset":5112,"componentType":5126,"count":2,"type":"VEC3","name":"accessorAnimationScales"},{"bufferView":3,"byteOffset":2564,"componentType":5126,"count":4,"max":[7.0666666],"min":[0.0],"type":"SCALAR","name":"accessorAnimationInput"},{"bufferView":3,"byteOffset":2580,"componentType":5126,"count":4,"type":"SCALAR","name":"accessorAnimationWeights"},{"bufferView":3,"byteOffset":2596,"componentType":5126,"count":213,"max":[7.0666666],"min":[0.0],"type":"SCALAR","name":"accessorAnimationInput"},{"bufferView":4,"byteOffset":5136,"componentType":5126,"count":213,"type":"VEC3","name":"accessorAnimationScales"}],"bufferViews":[{"buffer":0,"byteLength":53904,"name":"bufferViewScalar"},{"buffer":0,"byteOffset":53904,"byteLength":717696,"byteStride":12,"name":"bufferViewFloatVec3"},{"buffer":0,"byteOffset":771600,"byteLength":215616,"byteStride":8,"name":"bufferViewFloatVec2"},{"buffer":0,"byteOffset":987216,"byteLength":3448,"name":"bufferViewAnimationFloatScalar"},{"buffer":0,"byteOffset":990664,"byteLength":7692,"name":"bufferViewAnimationFloatVec3"},{"buffer":0,"byteOffset":998356,"byteLength":3408,"name":"bufferViewAnimationFloatVec4"}],"buffers":[{"uri":"RBC2.bin","byteLength":1001764}],"animations":[{"channels":[{"sampler":0,"target":{"node":0,"path":"translation"}},{"sampler":1,"target":{"node":0,"path":"rotation"}},{"sampler":2,"target":{"node":0,"path":"scale"}},{"sampler":3,"target":{"node":1,"path":"scale"}},{"sampler":4,"target":{"node":1,"path":"weights"}},{"sampler":5,"target":{"node":2,"path":"scale"}}],"samplers":[{"input":10,"interpolation":0,"output":11},{"input":12,"interpolation":0,"output":13},{"input":14,"interpolation":0,"output":15},{"input":16,"interpolation":0,"output":17},{"input":18,"interpolation":0,"output":19},{"input":20,"interpolation":0,"output":21}],"name":"All Animations"}]}