{"asset":{"version":"2.0","generator":"babylon.js glTF exporter for 3dsmax 2019 v20200312.5"},"scene":0,"scenes":[{"nodes":[0,3]}],"nodes":[{"children":[1,2],"translation":[-1.55388689,3.31942248,-8.56176949],"scale":[0.0,0.0,0.0],"name":"Dummy002"},{"mesh":0,"scale":[0.0,0.0,0.0],"name":"Object414"},{"mesh":1,"scale":[0.0,0.0,0.0],"name":"1_11Shape014"},{"name":"Default light"}],"meshes":[{"primitives":[{"attributes":{"POSITION":1,"NORMAL":2,"TEXCOORD_0":3},"indices":0}],"name":"Object414"},{"primitives":[{"attributes":{"POSITION":5,"NORMAL":6,"TEXCOORD_0":7},"indices":4}],"weights":[],"name":"1_11Shape014"}],"accessors":[{"bufferView":0,"componentType":5123,"count":2952,"type":"SCALAR","name":"accessorIndices"},{"bufferView":1,"componentType":5126,"count":2952,"max":[0.657993555,0.640842259,0.3075896],"min":[-0.657055736,-0.6474978,-0.3049708],"type":"VEC3","name":"accessorPositions"},{"bufferView":1,"byteOffset":35424,"componentType":5126,"count":2952,"type":"VEC3","name":"accessorNormals"},{"bufferView":2,"componentType":5126,"count":2952,"type":"VEC2","name":"accessorUVs"},{"bufferView":0,"byteOffset":5904,"componentType":5123,"count":24000,"type":"SCALAR","name":"accessorIndices"},{"bufferView":1,"byteOffset":70848,"componentType":5126,"count":24000,"max":[0.107618757,0.111986347,0.09640426],"min":[-0.0986962,-0.112104565,-0.09644864],"type":"VEC3","name":"accessorPositions"},{"bufferView":1,"byteOffset":358848,"componentType":5126,"count":24000,"type":"VEC3","name":"accessorNormals"},{"bufferView":2,"byteOffset":23616,"componentType":5126,"count":24000,"type":"VEC2","name":"accessorUVs"},{"bufferView":3,"componentType":5126,"count":213,"max":[7.0666666],"min":[0.0],"type":"SCALAR","name":"accessorAnimationInput"},{"bufferView":4,"componentType":5126,"count":213,"type":"VEC3","name":"accessorAnimationPositions"},{"bufferView":3,"byteOffset":852,"componentType":5126,"count":213,"max":[7.0666666],"min":[0.0],"type":"SCALAR","name":"accessorAnimationInput"},{"bufferView":5,"componentType":5126,"count":213,"type":"VEC4","name":"accessorAnimationRotations"},{"bufferView":3,"byteOffset":1704,"componentType":5126,"count":213,"max":[7.0666666],"min":[0.0],"type":"SCALAR","name":"accessorAnimationInput"},{"bufferView":4,"byteOffset":2556,"componentType":5126,"count":213,"type":"VEC3","name":"accessorAnimationScales"},{"bufferView":3,"byteOffset":2556,"componentType":5126,"count":213,"max":[7.0666666],"min":[0.0],"type":"SCALAR","name":"accessorAnimationInput"},{"bufferView":4,"byteOffset":5112,"componentType":5126,"count":213,"type":"VEC3","name":"accessorAnimationPositions"},{"bufferView":3,"byteOffset":3408,"componentType":5126,"count":213,"max":[7.0666666],"min":[0.0],"type":"SCALAR","name":"accessorAnimationInput"},{"bufferView":5,"byteOffset":3408,"componentType":5126,"count":213,"type":"VEC4","name":"accessorAnimationRotations"},{"bufferView":3,"byteOffset":4260,"componentType":5126,"count":213,"max":[7.0666666],"min":[0.0],"type":"SCALAR","name":"accessorAnimationInput"},{"bufferView":4,"byteOffset":7668,"componentType":5126,"count":213,"type":"VEC3","name":"accessorAnimationScales"},{"bufferView":3,"byteOffset":5112,"componentType":5126,"count":213,"max":[7.0666666],"min":[0.0],"type":"SCALAR","name":"accessorAnimationInput"},{"bufferView":4,"byteOffset":10224,"componentType":5126,"count":213,"type":"VEC3","name":"accessorAnimationScales"}],"bufferViews":[{"buffer":0,"byteLength":53904,"name":"bufferViewScalar"},{"buffer":0,"byteOffset":53904,"byteLength":646848,"byteStride":12,"name":"bufferViewFloatVec3"},{"buffer":0,"byteOffset":700752,"byteLength":215616,"byteStride":8,"name":"bufferViewFloatVec2"},{"buffer":0,"byteOffset":916368,"byteLength":5964,"name":"bufferViewAnimationFloatScalar"},{"buffer":0,"byteOffset":922332,"byteLength":12780,"name":"bufferViewAnimationFloatVec3"},{"buffer":0,"byteOffset":935112,"byteLength":6816,"name":"bufferViewAnimationFloatVec4"}],"buffers":[{"uri":"RBC2.bin","byteLength":941928}],"animations":[{"channels":[{"sampler":0,"target":{"node":0,"path":"translation"}},{"sampler":1,"target":{"node":0,"path":"rotation"}},{"sampler":2,"target":{"node":0,"path":"scale"}},{"sampler":3,"target":{"node":1,"path":"translation"}},{"sampler":4,"target":{"node":1,"path":"rotation"}},{"sampler":5,"target":{"node":1,"path":"scale"}},{"sampler":6,"target":{"node":2,"path":"scale"}}],"samplers":[{"input":8,"interpolation":0,"output":9},{"input":10,"interpolation":0,"output":11},{"input":12,"interpolation":0,"output":13},{"input":14,"interpolation":0,"output":15},{"input":16,"interpolation":0,"output":17},{"input":18,"interpolation":0,"output":19},{"input":20,"interpolation":0,"output":21}],"name":"All Animations"}]}