{"asset":{"version":"2.0","generator":"babylon.js glTF exporter for 3dsmax 2019 v20200312.5"},"scene":0,"scenes":[{"nodes":[0,1]}],"nodes":[{"mesh":0,"translation":[-1.55388689,3.31942248,-8.56176949],"scale":[0.0,0.0,0.0],"name":"Object417"},{"name":"Default light"}],"meshes":[{"primitives":[{"attributes":{"POSITION":1,"NORMAL":2,"TEXCOORD_0":3},"indices":0,"targets":[{"POSITION":4,"NORMAL":5}]}],"weights":[0.0],"name":"Object417"}],"accessors":[{"bufferView":0,"componentType":5123,"count":2952,"type":"SCALAR","name":"accessorIndices"},{"bufferView":1,"componentType":5126,"count":2952,"max":[0.871514857,0.3066913,0.8414117],"min":[-0.871514857,-0.306691259,-0.8414105],"type":"VEC3","name":"accessorPositions"},{"bufferView":1,"byteOffset":35424,"componentType":5126,"count":2952,"type":"VEC3","name":"accessorNormals"},{"bufferView":2,"componentType":5126,"count":2952,"type":"VEC2","name":"accessorUVs"},{"bufferView":1,"byteOffset":70848,"componentType":5126,"count":2952,"max":[0.42105037,0.5472796,0.1747995],"min":[-0.4123395,-0.60277164,-0.423823535],"type":"VEC3","name":"accessorTargetPositions"},{"bufferView":1,"byteOffset":106272,"componentType":5126,"count":2952,"type":"VEC3","name":"accessorTargetNormals"},{"bufferView":3,"componentType":5126,"count":72,"max":[7.0666666],"min":[0.0],"type":"SCALAR","name":"accessorAnimationInput"},{"bufferView":4,"componentType":5126,"count":72,"type":"VEC3","name":"accessorAnimationPositions"},{"bufferView":3,"byteOffset":288,"componentType":5126,"count":4,"max":[7.0666666],"min":[0.0],"type":"SCALAR","name":"accessorAnimationInput"},{"bufferView":5,"componentType":5126,"count":4,"type":"VEC4","name":"accessorAnimationRotations"},{"bufferView":3,"byteOffset":304,"componentType":5126,"count":22,"max":[7.0666666],"min":[0.0],"type":"SCALAR","name":"accessorAnimationInput"},{"bufferView":4,"byteOffset":864,"componentType":5126,"count":22,"type":"VEC3","name":"accessorAnimationScales"}],"bufferViews":[{"buffer":0,"byteLength":5904,"name":"bufferViewScalar"},{"buffer":0,"byteOffset":5904,"byteLength":141696,"byteStride":12,"name":"bufferViewFloatVec3"},{"buffer":0,"byteOffset":147600,"byteLength":23616,"byteStride":8,"name":"bufferViewFloatVec2"},{"buffer":0,"byteOffset":171216,"byteLength":392,"name":"bufferViewAnimationFloatScalar"},{"buffer":0,"byteOffset":171608,"byteLength":1128,"name":"bufferViewAnimationFloatVec3"},{"buffer":0,"byteOffset":172736,"byteLength":64,"name":"bufferViewAnimationFloatVec4"}],"buffers":[{"uri":"RBC3.bin","byteLength":172800}],"animations":[{"channels":[{"sampler":0,"target":{"node":0,"path":"translation"}},{"sampler":1,"target":{"node":0,"path":"rotation"}},{"sampler":2,"target":{"node":0,"path":"scale"}}],"samplers":[{"input":6,"interpolation":0,"output":7},{"input":8,"interpolation":0,"output":9},{"input":10,"interpolation":0,"output":11}],"name":"rbc"}]}