{"asset":{"version":"2.0","generator":"babylon.js glTF exporter for 3dsmax 2019 v20200312.5"},"scene":0,"scenes":[{"nodes":[0,1]}],"nodes":[{"mesh":0,"translation":[-1.55521619,3.48998141,21.3292274],"rotation":[-0.0109524811,0.00326652871,-0.0281239878,0.9995391],"scale":[1.00328493,1.00056291,1.00380218],"name":"Object419"},{"name":"Default light"}],"meshes":[{"primitives":[{"attributes":{"POSITION":1,"NORMAL":2,"TEXCOORD_0":3},"indices":0,"material":0}],"weights":[],"name":"Object419"}],"accessors":[{"bufferView":0,"componentType":5123,"count":2952,"type":"SCALAR","name":"accessorIndices"},{"bufferView":1,"componentType":5126,"count":2952,"max":[0.871514857,0.3066913,0.8414117],"min":[-0.871514857,-0.306691259,-0.8414105],"type":"VEC3","name":"accessorPositions"},{"bufferView":1,"byteOffset":35424,"componentType":5126,"count":2952,"type":"VEC3","name":"accessorNormals"},{"bufferView":2,"componentType":5126,"count":2952,"type":"VEC2","name":"accessorUVs"},{"bufferView":3,"componentType":5126,"count":99,"max":[10.8],"min":[0.0],"type":"SCALAR","name":"accessorAnimationInput"},{"bufferView":4,"componentType":5126,"count":99,"type":"VEC3","name":"accessorAnimationPositions"}],"bufferViews":[{"buffer":0,"byteLength":5904,"name":"bufferViewScalar"},{"buffer":0,"byteOffset":5904,"byteLength":70848,"byteStride":12,"name":"bufferViewFloatVec3"},{"buffer":0,"byteOffset":76752,"byteLength":23616,"byteStride":8,"name":"bufferViewFloatVec2"},{"buffer":0,"byteOffset":100368,"byteLength":396,"name":"bufferViewAnimationFloatScalar"},{"buffer":0,"byteOffset":100764,"byteLength":1188,"name":"bufferViewAnimationFloatVec3"}],"buffers":[{"uri":"together2.bin","byteLength":101952}],"materials":[{"pbrMetallicRoughness":{"baseColorFactor":[0.8,0.8,0.8,1.0],"metallicFactor":0.0,"roughnessFactor":0.2},"name":"07 - Default"}],"animations":[{"channels":[{"sampler":0,"target":{"node":0,"path":"translation"}}],"samplers":[{"input":4,"interpolation":0,"output":5}],"name":"FRONT"}]}