{"asset":{"version":"2.0","generator":"babylon.js glTF exporter for 3dsmax 2019 v20200312.5"},"scene":0,"scenes":[{"nodes":[0,1]}],"nodes":[{"mesh":0,"translation":[-1.55521619,3.48998141,21.3292274],"rotation":[-0.0109525835,0.00326653244,-0.0281239729,0.9995391],"scale":[1.00328493,1.00056291,1.00380218],"name":"Object421"},{"name":"Default light"}],"meshes":[{"primitives":[{"attributes":{"POSITION":1,"NORMAL":2,"TEXCOORD_0":3},"indices":0,"material":0,"targets":[{"POSITION":4,"NORMAL":5}]}],"weights":[0.0],"name":"Object421"}],"accessors":[{"bufferView":0,"componentType":5123,"count":2952,"type":"SCALAR","name":"accessorIndices"},{"bufferView":1,"componentType":5126,"count":2952,"max":[0.871514857,0.3066913,0.8414117],"min":[-0.871514857,-0.306691259,-0.8414105],"type":"VEC3","name":"accessorPositions"},{"bufferView":1,"byteOffset":35424,"componentType":5126,"count":2952,"type":"VEC3","name":"accessorNormals"},{"bufferView":2,"componentType":5126,"count":2952,"type":"VEC2","name":"accessorUVs"},{"bufferView":1,"byteOffset":70848,"componentType":5126,"count":2952,"max":[0.418151855,0.522541463,0.182802439],"min":[-0.415238082,-0.6275098,-0.4158206],"type":"VEC3","name":"accessorTargetPositions"},{"bufferView":1,"byteOffset":106272,"componentType":5126,"count":2952,"type":"VEC3","name":"accessorTargetNormals"},{"bufferView":3,"componentType":5126,"count":325,"max":[10.8],"min":[0.0],"type":"SCALAR","name":"accessorAnimationInput"},{"bufferView":4,"componentType":5126,"count":325,"type":"VEC3","name":"accessorAnimationPositions"}],"bufferViews":[{"buffer":0,"byteLength":5904,"name":"bufferViewScalar"},{"buffer":0,"byteOffset":5904,"byteLength":141696,"byteStride":12,"name":"bufferViewFloatVec3"},{"buffer":0,"byteOffset":147600,"byteLength":23616,"byteStride":8,"name":"bufferViewFloatVec2"},{"buffer":0,"byteOffset":171216,"byteLength":1300,"name":"bufferViewAnimationFloatScalar"},{"buffer":0,"byteOffset":172516,"byteLength":3900,"name":"bufferViewAnimationFloatVec3"}],"buffers":[{"uri":"together2.bin","byteLength":176416}],"materials":[{"pbrMetallicRoughness":{"baseColorFactor":[0.8,0.8,0.8,1.0],"metallicFactor":0.0,"roughnessFactor":0.2},"name":"07 - Default"}],"animations":[{"channels":[{"sampler":0,"target":{"node":0,"path":"translation"}}],"samplers":[{"input":6,"interpolation":0,"output":7}],"name":"back"}]}